<svg width="193" height="134" viewBox="0 0 193 134" fill="none" xmlns="http://www.w3.org/2000/svg">
<path d="M146 53.5C146 54.8281 147.094 56 148.5 56C149.828 56 151 54.9063 151 53.5C151 52.1719 149.906 51 148.5 51C147.094 51 146 52.0937 146 53.5Z" fill="#1A76E8"/>
<path d="M27.108 127.795C28.2743 127.795 29.2198 126.849 29.2198 125.683C29.2198 124.517 28.2743 123.571 27.108 123.571C25.9417 123.571 24.9962 124.517 24.9962 125.683C24.9962 126.849 25.9417 127.795 27.108 127.795Z" fill="#1A76E8"/>
<path d="M110.061 48.338C110.061 49.0639 110.655 49.5919 111.315 49.5919C112.041 49.5919 112.569 48.9979 112.569 48.338C112.569 47.6781 111.975 47.0841 111.315 47.0841C110.655 47.0181 110.061 47.6121 110.061 48.338Z" fill="#EB2D40"/>
<path d="M0 1C0 2.15789 0.947365 3 2 3C3.1579 3 4 2.05263 4 1C4 -0.0526319 3.05263 -1 2 -1C0.947365 -1 0 -0.0526319 0 1Z" fill="#1A76E8"/>
<path d="M19.7824 100.737C19.7824 101.463 20.3763 101.991 21.0363 101.991C21.7622 101.991 22.2902 101.397 22.2902 100.737C22.2902 100.011 21.6962 99.4834 21.0363 99.4834C20.3104 99.4834 19.7824 100.011 19.7824 100.737Z" fill="#EB2D40"/>
<path d="M164.375 39.7588C164.375 40.4847 164.969 41.0126 165.629 41.0126C166.355 41.0126 166.883 40.4187 166.883 39.7588C166.883 39.0328 166.289 38.5049 165.629 38.5049C164.969 38.5049 164.375 39.0328 164.375 39.7588Z" fill="#26D474"/>
<path d="M110.986 68.7964C110.986 69.9183 111.91 70.9082 113.098 70.9082C114.22 70.9082 115.21 69.9842 115.21 68.7964C115.21 67.6745 114.286 66.6846 113.098 66.6846C111.91 66.6846 110.986 67.6745 110.986 68.7964Z" fill="#26D474"/>
<path d="M193 85.8677L185 93L183 90.8676L187.72 83L193 85.8677Z" fill="#1A76E8"/>
<path d="M154.488 129.472L142.698 126.219L143.754 122.967L154.586 122.81L154.488 129.472Z" fill="#1A76E8"/>
<path d="M124.25 44.1143L130.454 50.9116L128.474 52.4954L121.545 48.3379L124.25 44.1143Z" fill="#1A76E8"/>
<path d="M124.713 124.627L130.982 131.358L129.002 133.008L122.007 128.917L124.713 124.627Z" fill="#FF6F1C"/>
<path d="M45 49.0511L37.0968 57L35 54.5912L39.6774 46L45 49.0511Z" fill="#1A76E8"/>
<path d="M164 10L165.18 20L168.23 19.4643L170 10.8929L164 10Z" fill="#FFD417"/>
<path d="M90.2152 35L88 44.5614L90.6582 45L95 37.4561L90.2152 35Z" fill="#FFD417"/>
<path d="M60.9624 -0.469727L57.9927 8.24143L60.5004 8.90137L65.12 2.368L60.9624 -0.469727Z" fill="#EB2D40"/>
<path d="M102.934 52.5615L107.158 60.7447L104.782 61.7346L99.2386 55.9272L102.934 52.5615Z" fill="#EB2D40"/>
</svg>
