<svg width="343" height="134" viewBox="0 0 343 134" fill="none" xmlns="http://www.w3.org/2000/svg">
<mask id="mask0" mask-type="alpha" maskUnits="userSpaceOnUse" x="0" y="0" width="343" height="134">
<rect width="343" height="134" rx="12" fill="#56AA85"/>
</mask>
<g mask="url(#mask0)">
<rect width="343" height="134" rx="12" fill="#56AA85"/>
<path d="M294 53.5C294 54.8281 295.094 56 296.5 56C297.828 56 299 54.9063 299 53.5C299 52.1719 297.906 51 296.5 51C295.094 51 294 52.0937 294 53.5Z" fill="#1A76E8"/>
<path d="M175.108 127.795C176.274 127.795 177.22 126.849 177.22 125.683C177.22 124.517 176.274 123.571 175.108 123.571C173.942 123.571 172.996 124.517 172.996 125.683C172.996 126.849 173.942 127.795 175.108 127.795Z" fill="#1A76E8"/>
<path d="M258.061 48.338C258.061 49.0639 258.655 49.5919 259.315 49.5919C260.041 49.5919 260.569 48.9979 260.569 48.338C260.569 47.6781 259.975 47.0841 259.315 47.0841C258.655 47.0181 258.061 47.6121 258.061 48.338Z" fill="#EB2D40"/>
<path d="M148 1C148 2.15789 148.947 3 150 3C151.158 3 152 2.05263 152 1C152 -0.0526319 151.053 -1 150 -1C148.947 -1 148 -0.0526319 148 1Z" fill="#1A76E8"/>
<path d="M167.782 100.737C167.782 101.463 168.376 101.991 169.036 101.991C169.762 101.991 170.29 101.397 170.29 100.737C170.29 100.011 169.696 99.4834 169.036 99.4834C168.31 99.4834 167.782 100.011 167.782 100.737Z" fill="#EB2D40"/>
<path d="M312.375 39.7588C312.375 40.4847 312.969 41.0126 313.629 41.0126C314.355 41.0126 314.883 40.4187 314.883 39.7588C314.883 39.0328 314.289 38.5049 313.629 38.5049C312.969 38.5049 312.375 39.0328 312.375 39.7588Z" fill="#26D474"/>
<path d="M258.986 68.7964C258.986 69.9183 259.91 70.9082 261.098 70.9082C262.22 70.9082 263.21 69.9842 263.21 68.7964C263.21 67.6745 262.286 66.6846 261.098 66.6846C259.91 66.6846 258.986 67.6745 258.986 68.7964Z" fill="#26D474"/>
<path d="M341 85.8677L333 93L331 90.8676L335.72 83L341 85.8677Z" fill="#1A76E8"/>
<path d="M302.488 129.472L290.698 126.219L291.754 122.967L302.586 122.81L302.488 129.472Z" fill="#1A76E8"/>
<path d="M272.25 44.1143L278.454 50.9116L276.474 52.4954L269.545 48.3379L272.25 44.1143Z" fill="#1A76E8"/>
<path d="M272.713 124.627L278.982 131.358L277.002 133.008L270.007 128.917L272.713 124.627Z" fill="#FF6F1C"/>
<path d="M193 49.0511L185.097 57L183 54.5912L187.677 46L193 49.0511Z" fill="#1A76E8"/>
<path d="M312 10L313.18 20L316.23 19.4643L318 10.8929L312 10Z" fill="#FFD417"/>
<path d="M238.215 35L236 44.5614L238.658 45L243 37.4561L238.215 35Z" fill="#FFD417"/>
<path d="M208.962 -0.469727L205.993 8.24143L208.5 8.90137L213.12 2.368L208.962 -0.469727Z" fill="#EB2D40"/>
<path d="M250.934 52.5615L255.158 60.7447L252.782 61.7346L247.239 55.9272L250.934 52.5615Z" fill="#EB2D40"/>
<path d="M269.614 79.4096L271.192 78.5078C271.192 78.5078 275.475 107.514 274.573 122.017C273.747 136.52 268.562 155.307 268.562 155.307L247.22 156.133C247.22 156.133 254.885 132.237 254.059 112.624C253.232 93.011 254.059 84.4443 254.059 84.4443L269.614 79.4096Z" fill="white"/>
<path d="M250.602 45.8948C250.302 47.0971 250.602 48.5249 249.851 49.5018C249.625 49.8023 249.325 50.0278 249.024 50.2532C248.047 51.155 247.521 52.5076 247.747 53.7851C247.972 54.762 248.573 55.8892 248.122 56.7909C247.897 57.1666 247.521 57.3921 247.221 57.7678C246.544 58.5193 246.394 59.7216 246.845 60.6985C247.296 61.6754 248.122 62.3517 249.099 62.7274C249.4 62.8777 249.776 62.9529 250.076 62.8777C250.377 62.8026 250.677 62.5771 250.828 62.4268C251.729 61.5251 252.18 60.1725 252.481 58.895C252.781 57.6175 252.856 56.2649 253.382 55.0626C254.284 52.8833 256.238 51.155 256.764 48.8255C257.065 47.3225 256.689 44.0913 255.036 43.2647C253.232 42.2878 250.978 44.2416 250.602 45.8948Z" fill="#382B31"/>
<path d="M259.62 38.4556C260.972 38.2301 262.4 38.5307 263.677 38.9065C265.03 39.2822 266.308 39.8082 267.66 39.9585C268.712 40.0336 269.839 39.9585 270.891 39.9585C272.319 39.9585 273.822 40.1839 275.175 40.7851C276.527 41.3863 277.655 42.4383 278.181 43.7909C278.631 44.7678 278.707 45.9702 279.308 46.8719C279.759 47.5482 280.51 47.9991 280.961 48.6754C281.562 49.4269 281.788 50.4789 281.637 51.4558C281.487 52.2824 281.036 53.109 281.186 53.8605C281.412 54.7622 282.238 55.2883 282.915 55.9646C283.892 56.9415 284.418 58.2941 284.343 59.6467C284.267 60.9993 283.666 62.352 282.614 63.1786C282.163 63.5543 281.637 63.8549 281.186 64.3057C280.435 65.2075 280.36 66.485 279.984 67.6122C279.608 68.8897 278.707 70.0168 277.504 70.5429C276.753 70.8434 275.851 70.8434 275.1 71.0689C273.972 71.4446 273.071 72.2712 271.943 72.6469C270.741 73.0227 269.389 72.6469 268.261 71.9706C267.209 71.2943 266.383 70.3174 265.631 69.1902C264.88 68.063 264.279 66.7856 263.903 65.5081C263.602 64.3809 263.452 63.1786 263.076 61.9762C262.776 60.849 262.174 59.6467 261.198 58.9704C260.221 58.2941 259.018 58.0686 257.966 57.5426C255.562 56.3403 254.359 53.3345 254.81 50.7044C254.96 49.5772 255.411 48.5251 255.411 47.3228C255.411 46.4962 255.186 45.5944 255.186 44.7678C255.336 42.4383 256.989 38.9816 259.62 38.4556Z" fill="#382B31"/>
<path d="M271.643 62.5774C272.019 62.1265 273.672 58.8201 276.152 59.6467C278.632 60.4733 278.256 66.6353 275.025 67.9127C271.718 69.1902 270.516 67.537 270.516 67.537L271.643 62.5774Z" fill="#FB9D89"/>
<path d="M273.371 62.1269C273.672 61.5257 274.048 60.7743 274.799 60.6991C275.325 60.624 275.776 60.9997 276.077 61.3754C276.978 62.5778 276.903 64.231 276.227 65.5836C275.926 66.1096 275.551 66.6356 274.949 66.9362C274.348 67.2368 273.672 67.2368 273.146 66.7859C272.845 66.4853 272.695 66.0345 272.62 65.6587" stroke="#382B31" stroke-width="0.279" stroke-miterlimit="10" stroke-linecap="round" stroke-linejoin="round"/>
<path d="M275.626 60.9248C275.626 60.9248 273.672 62.4277 272.92 66.4105" stroke="#382B31" stroke-width="0.279" stroke-miterlimit="10" stroke-linecap="round" stroke-linejoin="round"/>
<path d="M249.926 61.0739C249.926 60.2473 250.001 59.4958 250.076 58.6692C250.076 58.3686 250.151 57.9929 250.226 57.6923L250.602 55.5131C250.602 55.5131 250.602 55.4379 250.602 55.3628C250.602 55.2125 250.677 55.0622 250.677 54.9119C250.752 54.7616 250.752 54.6113 250.828 54.3859C251.354 52.2818 252.255 50.328 253.608 48.6748C255.562 46.2701 258.492 44.6169 261.573 44.3915C262.4 44.3163 263.227 44.3915 264.053 44.4666C264.204 44.4666 264.429 44.5418 264.579 44.5418C264.654 44.5418 264.73 44.5418 264.88 44.6169C265.03 44.6921 265.256 44.6921 265.406 44.7672C268.111 45.5187 270.29 47.3222 271.793 49.7268C272.77 51.2297 273.146 53.3338 273.371 55.1373C273.597 56.7905 273.597 58.3686 273.371 60.0218C273.371 60.097 273.371 60.1721 273.296 60.2473C273.296 60.4727 273.221 60.7733 273.146 60.9236C272.695 63.3282 271.868 65.5826 270.967 67.837C270.14 69.8659 269.539 72.0451 269.464 74.2995C269.389 75.4267 269.539 76.5539 269.764 77.6811C269.915 78.3574 270.29 78.9586 270.516 79.5597C271.042 81.2129 268.787 83.0164 267.585 83.9182C266.007 85.1957 264.053 86.1726 262.024 86.6234C260.972 86.8489 259.92 86.924 258.868 86.8489C257.065 86.7737 255.336 86.3229 255.787 84.0685C256.013 83.0916 256.539 82.1898 256.614 81.2129C256.764 80.236 256.764 79.2591 256.839 78.2823C256.839 77.8314 256.914 77.4557 256.914 77.0048C256.914 76.7042 257.065 75.8776 256.839 75.577C256.839 75.577 256.839 75.577 256.839 75.5019C256.839 75.5019 256.839 75.5019 256.839 75.4267C255.562 75.2764 254.585 75.3516 253.458 74.525C252.481 73.7735 251.729 72.7966 251.203 71.6694C250.452 69.9411 250.302 68.2127 250.001 66.4092C249.926 64.8311 249.851 62.9525 249.926 61.0739Z" fill="#FB9D89"/>
<path opacity="0.36" d="M264.579 73.0977C264.579 73.0977 260.972 78.3579 257.065 78.8839C257.215 77.907 257.215 76.8549 257.14 75.8781C257.14 75.8781 257.14 75.878 257.14 75.8029V75.7278C256.99 75.7278 262.776 74.5254 264.579 73.0977Z" fill="#FB9D89"/>
<path d="M252.105 59.8717C252.03 60.2474 252.331 60.6231 252.706 60.6231C253.082 60.6983 253.458 60.3977 253.458 60.022C253.533 59.6462 253.232 59.2705 252.857 59.2705C252.556 59.2705 252.18 59.4959 252.105 59.8717Z" fill="#382B31"/>
<path d="M260.521 60.3224C260.371 60.7733 260.596 61.2241 261.047 61.2993C261.498 61.4496 261.874 61.2241 262.024 60.7733C262.175 60.3224 261.949 59.8715 261.498 59.7964C261.047 59.6461 260.596 59.9467 260.521 60.3224Z" fill="#382B31"/>
<path d="M254.585 57.4668C253.984 60.0969 253.908 62.8021 254.284 65.4322C254.284 65.5825 254.359 65.808 254.435 65.9583C254.585 66.1837 254.885 66.2589 255.186 66.2589C255.862 66.334 256.539 66.1837 257.14 65.9583" stroke="#382B31" stroke-width="0.279" stroke-miterlimit="10" stroke-linecap="round" stroke-linejoin="round"/>
<path d="M258.117 69.4902C258.117 69.4902 256.614 70.2417 255.411 69.9411" stroke="#382B31" stroke-width="0.2351" stroke-miterlimit="10" stroke-linecap="round" stroke-linejoin="round"/>
<path d="M260.446 66.7852C260.446 66.7852 257.215 69.7158 253.458 68.4384" stroke="#382B31" stroke-width="0.279" stroke-miterlimit="10" stroke-linecap="round" stroke-linejoin="round"/>
<path opacity="0.38" d="M260.446 66.3344C260.446 69.2651 262.851 71.6697 265.782 71.6697C268.712 71.6697 271.117 69.2651 271.117 66.3344C271.117 63.4037 268.712 60.999 265.782 60.999C262.851 60.999 260.446 63.3285 260.446 66.3344Z" fill="url(#paint0_linear)"/>
<path opacity="0.38" d="M250.377 67.9125C250.527 68.8894 250.752 70.0166 251.053 71.0686C252.857 70.1669 254.059 68.3634 254.059 66.2593C254.059 63.7043 252.255 61.6002 249.926 61.0742C249.851 63.4037 250.001 65.7333 250.377 67.9125Z" fill="url(#paint1_linear)"/>
<path d="M263.978 56.7152C264.204 56.8655 264.354 57.0158 264.504 57.2412C264.805 57.6921 265.03 58.4436 264.579 58.8944C264.053 59.3453 263.377 58.669 262.851 58.4436C262.175 58.143 261.498 57.9176 260.747 57.9176C260.371 57.9176 259.995 57.9176 259.695 57.617C258.793 56.6401 260.747 55.8135 261.498 55.8135C262.175 55.8135 262.926 56.0389 263.527 56.3395C263.678 56.4898 263.828 56.5649 263.978 56.7152Z" fill="#382B31"/>
<path d="M253.533 55.8888C253.833 56.0391 254.134 56.2645 254.284 56.5651C254.434 56.8657 254.284 57.3166 253.983 57.4669C253.758 57.6172 253.457 57.542 253.157 57.4669C252.706 57.3917 252.18 57.4669 251.729 57.542C251.579 57.6172 251.428 57.6172 251.278 57.6172C250.978 57.542 250.902 57.2414 250.902 56.9409C250.978 55.5882 252.556 55.3628 253.533 55.8888Z" fill="#382B31"/>
<path d="M259.169 38.9814C257.365 39.5826 256.163 41.311 255.261 42.9642C254.735 44.0162 254.209 45.1434 254.359 46.2706C254.51 47.3978 255.487 48.525 256.689 48.3747C257.29 48.2995 257.891 47.8487 258.492 47.9989C259.094 48.0741 259.544 48.7504 259.695 49.3516C259.92 49.9527 259.995 50.629 260.296 51.1551C260.747 51.8314 261.498 52.2071 262.25 52.2823C263.001 52.3574 263.828 52.2823 264.579 52.0568C265.556 51.8314 266.758 51.6059 267.435 52.2823C267.886 52.7331 267.961 53.4094 268.036 54.0106C268.111 55.0627 268.036 56.1898 268.337 57.2419C268.637 58.2939 269.313 59.2708 270.365 59.5714C271.042 59.7217 271.793 59.5714 272.319 60.0223C272.47 60.1726 272.62 60.398 272.77 60.4732C273.221 60.6986 273.747 60.4732 274.198 60.2477C275.025 59.872 275.926 59.7968 276.753 60.0223C277.053 60.0974 277.354 60.2477 277.73 60.1726C278.556 60.0974 279.082 59.1957 279.458 58.4442C279.684 57.9182 279.984 57.317 279.984 56.791C280.134 55.5135 279.383 54.3112 279.233 53.0337C279.158 52.0568 279.458 51.1551 279.533 50.1782C279.684 49.2013 279.684 48.1492 279.082 47.3978C278.181 46.1954 276.302 46.1954 275.175 45.1434C274.423 44.4671 274.123 43.4151 273.522 42.5884C272.77 41.5364 271.418 40.8601 270.14 40.9352C268.938 41.0104 267.735 41.6116 266.533 41.3861C265.631 41.2358 264.805 40.6347 263.978 40.2589C262.926 39.8081 261.724 39.5826 260.521 39.8081C259.469 39.9583 258.342 40.4092 257.29 40.1838" fill="#382B31"/>
<path d="M271.342 64.2304C271.267 64.3807 271.192 64.531 271.042 64.6061C270.892 64.6813 270.666 64.6061 270.516 64.4558C270.366 64.3056 270.365 64.0801 270.29 63.9298C270.065 62.9529 269.764 61.9009 269.539 60.924C269.389 60.2477 269.163 59.4962 269.238 58.8199C269.313 58.1436 269.689 57.3921 270.366 57.0916C271.042 56.791 271.944 57.0916 272.394 57.6927C273.973 59.4962 272.094 62.5021 271.342 64.2304Z" fill="#382B31"/>
<path d="M315.453 64.2299L316.054 50.4782L320.939 49.9521L324.32 64.0796L315.453 64.2299Z" fill="#FB9D89"/>
<path d="M316.054 50.4785C316.054 50.4785 311.62 48.3744 311.846 46.4206C312.071 44.4668 313.274 43.1894 313.274 43.1894C312.597 41.3859 311.996 39.5072 311.47 37.6286C311.094 36.5765 310.794 35.4493 310.493 34.3222C310.193 33.195 309.667 31.8423 309.817 30.64C309.817 30.4146 309.892 30.2643 310.042 30.114C310.493 29.7383 311.17 30.114 311.47 30.4897C311.996 31.166 312.297 31.9175 312.672 32.669C312.973 33.195 313.274 33.7961 313.499 34.3222C314.1 35.5245 314.701 36.7268 315.303 37.854C315.528 38.2297 315.678 38.6806 315.904 39.0564L316.355 38.9061C316.355 38.9061 314.777 28.2353 316.279 28.0099C317.782 27.7845 318.158 31.4666 318.308 32.8944C318.534 34.4725 319.511 38.1546 319.511 38.1546C319.511 38.1546 320.563 37.7789 321.089 38.5303C321.69 39.2818 324.395 43.1142 324.32 44.2414C324.32 45.3686 320.863 49.8022 320.863 49.8022L316.054 50.4785Z" fill="#FB9D89"/>
<path d="M320.263 38.2295C320.263 38.2295 317.482 42.9637 317.708 43.5649C317.933 44.166 319.812 46.1198 320.713 45.9695C321.615 45.8192 323.719 42.7382 323.719 42.7382" stroke="#382B31" stroke-width="0.279" stroke-miterlimit="10" stroke-linecap="round" stroke-linejoin="round"/>
<path d="M318.985 45.0675L322.517 40.7842" stroke="#382B31" stroke-width="0.279" stroke-miterlimit="10" stroke-linecap="round" stroke-linejoin="round"/>
<path d="M313.274 43.1138C313.274 43.1138 317.031 39.5819 317.933 39.7322C318.835 39.8825 319.285 41.2351 318.835 42.3623C318.384 43.4895 314.702 47.7728 314.702 47.7728L313.274 43.1138Z" fill="#FB9D89"/>
<path d="M313.274 43.1137C313.274 43.1137 317.181 39.131 318.233 39.8825C319.285 40.6339 319.135 42.1368 318.684 42.8132C318.233 43.4895 315.152 46.4953 315.152 46.4953" stroke="#382B31" stroke-width="0.279" stroke-miterlimit="10" stroke-linecap="round" stroke-linejoin="round"/>
<path d="M317.106 44.6924C317.106 44.6924 318.459 44.8427 319.511 46.4207" stroke="#382B31" stroke-width="0.279" stroke-miterlimit="10" stroke-linecap="round" stroke-linejoin="round"/>
<path d="M314.927 39.5824C314.927 39.5824 316.655 38.6806 317.708 38.6055" stroke="#382B31" stroke-width="0.279" stroke-miterlimit="10" stroke-linecap="round" stroke-linejoin="round"/>
<path d="M271.192 78.5077C271.192 78.5077 275.475 110.069 272.019 131.41C268.637 152.752 266.007 163.873 266.007 163.873C266.007 163.873 281.337 168.157 285.62 174.995C285.62 174.995 293.285 153.653 293.285 129.757C293.285 105.861 290.73 74.2995 290.73 74.2995C290.73 74.2995 281.412 72.5711 271.192 78.5077Z" fill="#FADC5D"/>
<path d="M271.192 78.5075C271.192 78.5075 272.995 91.9586 273.296 107.213L282.464 87.1493L277.805 85.2706L279.683 75.0508C277.053 75.7271 274.123 76.7791 271.192 78.5075Z" fill="#F4D759"/>
<path d="M289.978 99.548C289.978 99.548 290.805 99.1723 292.233 98.496C292.308 98.496 292.383 98.4208 292.458 98.4208C298.846 95.5653 315.904 87.8253 323.794 83.6923C323.869 83.6171 323.944 83.6171 324.019 83.542C325.898 82.5651 327.176 81.8136 327.702 81.3627C329.43 79.8598 329.129 75.9522 328.528 72.8713C328.528 72.7961 328.528 72.721 328.453 72.6458C328.002 70.3914 327.401 68.6631 327.401 68.6631L315.302 69.4145L314.25 69.64L313.574 69.7903L290.805 74.2239L289.978 99.548Z" fill="#FADC5D"/>
<path d="M325.673 61.75C325.673 61.75 327.702 69.0391 328.378 72.1953C329.054 75.4265 321.915 77.23 321.915 77.23L312.748 74.1491L314.175 63.1026L325.673 61.75Z" fill="#FADC5D"/>
<path d="M313.95 65.1316L326.123 63.5536C326.199 63.5536 326.199 63.4784 326.199 63.4033C326.199 63.3281 326.123 63.3281 326.048 63.3281L313.95 64.9062C313.875 64.9062 313.875 64.9813 313.875 65.0565C313.875 65.0565 313.875 65.1316 313.95 65.1316Z" fill="#F5D9D6"/>
<path d="M314.701 63.8541C314.701 64.1547 314.927 64.3802 315.227 64.3802C315.528 64.3802 315.753 64.1547 315.753 63.8541C315.753 63.5536 315.528 63.3281 315.227 63.3281C314.927 63.3281 314.701 63.6287 314.701 63.8541Z" fill="#F5D9D6"/>
<path d="M267.359 164.324C267.434 164.324 267.434 164.324 267.434 164.248C269.313 157.711 270.966 151.023 272.394 144.335C273.07 141.329 273.521 138.999 273.822 136.82C275.55 126.45 275.7 115.93 274.273 105.56C274.273 105.484 274.198 105.484 274.122 105.484C274.047 105.484 274.047 105.56 274.047 105.635C275.475 116.005 275.325 126.525 273.596 136.82C273.221 138.999 272.77 141.329 272.169 144.335C270.741 151.023 269.088 157.711 267.209 164.248C267.209 164.248 267.209 164.248 267.359 164.324C267.284 164.324 267.284 164.324 267.359 164.324Z" fill="#F5D9D6"/>
<path d="M314.325 69.7157L313.649 69.866L312.973 70.0163C315.979 71.4441 318.458 73.9239 319.886 76.9297C319.36 74.0742 317.857 71.4441 315.678 69.5654H315.377L314.325 69.7157Z" fill="#F4D759"/>
<path d="M296.065 87.1494C292.834 89.4789 292.458 98.4964 292.458 98.4964C292.909 98.271 293.51 98.0456 294.112 97.745C294.713 92.6351 296.065 87.1494 296.065 87.1494Z" fill="#F4D759"/>
<path d="M292.609 73.9238L290.805 74.2244L290.429 85.7217L292.609 73.9238Z" fill="#F4D759"/>
<path d="M287.424 91.8838C290.054 93.8376 292.233 98.5718 292.233 98.5718L293.886 97.8203C291.481 92.1092 287.424 91.8838 287.424 91.8838Z" fill="#F4D759"/>
<path d="M219.116 95.791L216.26 82.3398L211.3 82.6404L210.324 97.0684L219.116 95.791Z" fill="#FB9D89"/>
<path d="M216.26 82.3399C216.26 82.3399 220.243 79.4844 219.717 77.6058C219.191 75.7271 217.763 74.5999 217.763 74.5999C218.139 72.7213 218.44 70.7675 218.665 68.8137C218.815 67.6865 218.966 66.5593 219.041 65.4321C219.191 64.2298 219.416 62.8772 219.116 61.75C219.041 61.5997 218.966 61.3743 218.815 61.2991C218.289 60.9985 217.688 61.5245 217.463 61.9003C217.087 62.5766 216.862 63.4783 216.636 64.2298C216.411 64.831 216.26 65.4321 216.035 65.9582C215.659 67.2356 215.208 68.5131 214.833 69.7906C214.682 70.2415 214.532 70.6172 214.457 71.0681L214.006 70.9929C214.006 70.9929 213.781 60.2471 212.278 60.2471C210.775 60.2471 211 63.9292 211.075 65.357C211.075 66.9351 210.775 70.7675 210.775 70.7675C210.775 70.7675 209.723 70.542 209.272 71.4438C208.821 72.3455 206.792 76.5537 207.017 77.6058C207.243 78.6578 211.376 82.5654 211.376 82.5654L216.26 82.3399Z" fill="#FB9D89"/>
<path d="M211 78.7329C211.902 78.7329 213.555 76.4785 213.63 75.8022C213.706 75.1259 210.775 71.594 210.174 70.9177C210.174 70.8425 210.099 70.8425 210.023 70.9177C209.948 70.9177 209.948 70.9928 210.023 71.068C211.376 72.646 213.48 75.4264 213.405 75.8022C213.33 76.4033 211.752 78.5826 211 78.5826C210.324 78.5826 208.295 76.6288 207.619 75.9525C207.544 75.8773 207.544 75.8773 207.468 75.9525C207.393 76.0276 207.393 76.0276 207.468 76.1028C207.468 76.1779 210.023 78.7329 211 78.7329C210.925 78.7329 211 78.7329 211 78.7329Z" fill="#382B31"/>
<path d="M212.428 77.6051H212.503C212.503 77.53 212.503 77.53 212.503 77.4548L208.295 73.8479C208.22 73.7727 208.22 73.8479 208.145 73.8479C208.145 73.923 208.145 73.923 208.145 73.9981L212.428 77.6051Z" fill="#382B31"/>
<path d="M217.763 74.6751C217.763 74.6751 213.48 71.7445 212.653 72.1202C211.752 72.4208 211.526 73.8485 212.203 74.9006C212.879 75.8775 217.162 79.5596 217.162 79.5596L217.763 74.6751Z" fill="#FB9D89"/>
<path d="M216.411 78.4324C216.411 78.4324 216.486 78.4324 216.486 78.3573C216.486 78.2821 216.486 78.207 216.486 78.207C216.486 78.207 212.954 75.7272 212.428 75.126C211.902 74.5248 211.601 73.1722 212.428 72.2705C213.104 71.5941 216.486 73.6982 217.688 74.6C217.763 74.6 217.763 74.6 217.839 74.6C217.839 74.5248 217.839 74.5248 217.839 74.4497C217.388 74.0739 213.255 71.1433 212.278 72.1202C211.301 73.0971 211.677 74.5248 212.278 75.2011C212.804 75.9526 216.185 78.3573 216.411 78.4324C216.336 78.4324 216.411 78.4324 216.411 78.4324Z" fill="#382B31"/>
<path d="M212.127 79.0336C212.203 79.0336 212.203 79.0336 212.203 78.9585C212.954 77.3053 214.231 76.9295 214.231 76.9295C214.307 76.9295 214.307 76.8544 214.307 76.7793C214.307 76.7041 214.232 76.7041 214.156 76.7041C214.081 76.7041 212.804 77.155 211.977 78.8833C211.977 78.9585 212.052 79.0336 212.127 79.0336Z" fill="#382B31"/>
<path d="M215.584 71.5187C215.659 71.5187 215.659 71.5187 215.659 71.4436C215.659 71.3684 215.659 71.2933 215.584 71.2933C215.509 71.2933 213.706 70.6921 212.654 70.7672C212.578 70.7672 212.578 70.8424 212.578 70.9175C212.578 70.9927 212.654 70.9927 212.729 70.9927C213.706 70.9175 215.509 71.5187 215.584 71.5187C215.509 71.5187 215.584 71.5187 215.584 71.5187Z" fill="#382B31"/>
<path d="M255.787 83.6172C255.787 83.6172 243.839 86.9988 239.556 89.6289C239.556 89.6289 245.567 114.352 241.284 128.855C237.001 143.358 224.226 168.081 224.226 168.081C224.226 168.081 230.237 163.272 239.556 162.069C246.394 161.243 246.394 161.243 246.394 161.243C246.394 161.243 255.787 140.803 255.787 117.733C255.787 94.7388 255.787 83.6172 255.787 83.6172Z" fill="#FADC5D"/>
<path d="M250.151 94.4382L246.619 100.074L255.787 112.022C255.787 92.8601 255.787 83.6172 255.787 83.6172C255.787 83.6172 250.226 85.1953 245.342 86.9988L250.151 94.4382Z" fill="#F4D759"/>
<path d="M210.324 108.19C210.324 108.19 210.624 110.67 211.301 113.6C211.451 114.277 211.601 114.953 211.827 115.629C211.827 115.705 211.827 115.78 211.902 115.855C212.879 119.312 214.306 122.468 216.335 122.017C217.688 121.716 220.919 120.739 224.677 119.462C224.752 119.462 224.827 119.387 224.902 119.387C231.665 117.132 240.081 114.202 242.712 113.3C242.787 113.3 242.787 113.3 242.862 113.225H242.937C243.313 113.074 243.538 112.999 243.538 112.999C243.538 112.999 243.463 96.7678 239.781 89.8543C239.781 89.7792 239.706 89.7041 239.706 89.6289L239.631 89.704L221.596 101.201H221.52L221.07 101.502L210.324 108.19Z" fill="#FADC5D"/>
<path d="M223.399 108.491L219.942 95.5654L209.046 97.2938C209.046 97.2938 209.948 109.467 211.225 113.3C212.503 117.057 223.399 108.491 223.399 108.491Z" fill="#FADC5D"/>
<path d="M209.197 100.074L220.318 97.5946C220.393 97.5946 220.393 97.5194 220.393 97.4443C220.393 97.3691 220.318 97.3691 220.243 97.3691L209.121 99.849C209.046 99.849 209.046 99.9241 209.046 99.9992C209.121 100.074 209.121 100.074 209.197 100.074Z" fill="#F5D9D6"/>
<path d="M209.948 98.2712C209.948 98.4966 210.174 98.7221 210.399 98.7221C210.624 98.7221 210.85 98.4966 210.85 98.2712C210.85 98.0458 210.624 97.8203 210.399 97.8203C210.174 97.8203 209.948 98.0458 209.948 98.2712Z" fill="#F5D9D6"/>
<path d="M245.342 161.544C245.417 161.544 245.417 161.544 245.417 161.468C249.249 150.723 252.18 139.075 253.984 127.803C254.81 122.317 255.487 116.381 254.585 110.595C254.585 110.52 254.51 110.52 254.434 110.52C254.359 110.52 254.359 110.595 254.359 110.67C255.261 116.456 254.585 122.317 253.758 127.803C252.03 139.075 249.024 150.723 245.192 161.468C245.267 161.468 245.267 161.544 245.342 161.544Z" fill="#F5D9D6"/>
<path opacity="0.36" d="M251.203 116.306C251.203 116.907 251.729 117.433 252.33 117.433C252.932 117.433 253.458 116.907 253.458 116.306C253.458 115.705 252.932 115.179 252.33 115.179C251.729 115.179 251.203 115.63 251.203 116.306Z" fill="#FADC5D"/>
<path opacity="0.36" d="M250.677 124.572C250.677 125.173 251.203 125.699 251.804 125.699C252.405 125.699 252.931 125.173 252.931 124.572C252.931 123.97 252.405 123.444 251.804 123.444C251.128 123.444 250.677 123.895 250.677 124.572Z" fill="#FADC5D"/>
<path opacity="0.36" d="M249.325 132.988C249.325 133.589 249.851 134.115 250.452 134.115C251.053 134.115 251.579 133.589 251.579 132.988C251.579 132.387 251.053 131.861 250.452 131.861C249.851 131.786 249.325 132.312 249.325 132.988Z" fill="#FADC5D"/>
<path d="M221.446 101.126C220.619 103.831 219.642 108.49 220.393 112.473C220.393 112.473 222.047 103.906 223.85 99.623L221.446 101.126Z" fill="#F4D759"/>
<path d="M243.463 110.67C243.388 109.468 243.313 107.815 243.162 105.936C243.087 105.635 243.012 105.26 242.787 104.959C242.787 105.861 242.712 106.762 242.636 107.664C242.561 108.491 242.336 109.393 242.11 110.219C241.735 108.716 240.758 107.439 240.006 106.086C240.683 108.491 241.359 111.121 241.66 113.601C242.035 113.45 242.411 113.3 242.712 113.225C242.787 113.225 243.313 112.474 243.388 112.248C243.388 111.722 243.388 111.196 243.463 110.67Z" fill="#F4D759"/>
<path d="M240.607 97.97C240.382 96.392 240.157 94.8139 239.856 93.1607C239.706 91.9584 239.48 90.756 239.631 89.6289C239.631 89.6289 239.631 89.6289 239.631 89.5537L239.555 89.6289L238.128 90.5306C238.353 93.1607 239.18 95.7157 240.607 97.97Z" fill="#F4D759"/>
</g>
<defs>
<linearGradient id="paint0_linear" x1="273.283" y1="74.5649" x2="260.862" y2="60.8365" gradientUnits="userSpaceOnUse">
<stop offset="0.00372394" stop-color="#D16969" stop-opacity="0"/>
<stop offset="1" stop-color="#BA625A" stop-opacity="0.5"/>
</linearGradient>
<linearGradient id="paint1_linear" x1="254.047" y1="66.101" x2="249.887" y2="66.101" gradientUnits="userSpaceOnUse">
<stop offset="0.00372394" stop-color="#D16969" stop-opacity="0"/>
<stop offset="1" stop-color="#BA625A" stop-opacity="0.5"/>
</linearGradient>
</defs>
</svg>
