<svg width="20" height="20" viewBox="0 0 20 20" fill="none" xmlns="http://www.w3.org/2000/svg">
<path fill-rule="evenodd" clip-rule="evenodd" d="M0 10.015C0 4.74712 4.21 0 10.02 0C15.7 0 20 4.65699 20 9.98498C20 16.1642 14.96 20 10 20C8.36 20 6.54 19.5593 5.08 18.698C4.57 18.3876 4.14 18.1572 3.59 18.3375L1.57 18.9384C1.06 19.0986 0.6 18.698 0.75 18.1572L1.42 15.9139C1.53 15.6034 1.51 15.2729 1.35 15.0125C0.49 13.4301 0 11.6975 0 10.015ZM7.90234 5.78613C7.31901 6.31022 7.01823 7.00749 7 7.87793H8.85254C8.87533 7.49967 9.00749 7.19889 9.24902 6.97559C9.49056 6.75228 9.80729 6.64062 10.1992 6.64062C10.5866 6.64062 10.8988 6.74316 11.1357 6.94824C11.3773 7.14876 11.498 7.40853 11.498 7.72754C11.498 8.04199 11.4183 8.30404 11.2588 8.51367C11.0993 8.71875 10.7962 8.95345 10.3496 9.21777C9.87109 9.50033 9.53385 9.81478 9.33789 10.1611C9.14648 10.5029 9.07357 10.9427 9.11914 11.4805L9.13281 11.8564H10.9443V11.4941C10.9443 11.166 11.0241 10.8971 11.1836 10.6875C11.3431 10.4779 11.6507 10.2409 12.1064 9.97656C12.5986 9.68945 12.9655 9.35905 13.207 8.98535C13.4486 8.61165 13.5693 8.17188 13.5693 7.66602C13.5693 6.87305 13.2708 6.23047 12.6738 5.73828C12.0814 5.24609 11.2975 5 10.3223 5C9.29232 5 8.48568 5.26204 7.90234 5.78613ZM10.1104 15.1582C10.4932 15.1582 10.7939 15.0557 11.0127 14.8506C11.236 14.641 11.3477 14.3561 11.3477 13.9961C11.3477 13.6361 11.236 13.3512 11.0127 13.1416C10.7939 12.932 10.4932 12.8271 10.1104 12.8271C9.72754 12.8271 9.42448 12.932 9.20117 13.1416C8.97786 13.3512 8.86621 13.6361 8.86621 13.9961C8.86621 14.3561 8.97786 14.641 9.20117 14.8506C9.42448 15.0557 9.72754 15.1582 10.1104 15.1582Z" fill="white"/>
</svg>
