<svg width="75" height="32" viewBox="0 0 75 32" fill="none" xmlns="http://www.w3.org/2000/svg">
<rect width="75" height="32" rx="16" fill="#326BDE" fill-opacity="0.12"/>
<path d="M38.4049 21.2569C38.4052 21.9917 37.8111 22.5859 37.0773 22.5845C36.7098 22.5843 36.3737 22.4448 36.125 22.1961C35.8871 21.9582 35.7357 21.6339 35.7474 21.2546L35.7338 17.4191L31.8983 17.4055C31.5309 17.4054 31.1947 17.2658 30.946 17.0171C30.7082 16.7793 30.5578 16.4323 30.5576 16.0648C30.5562 15.331 31.1504 14.7369 31.8961 14.7264L35.7327 14.7389L35.732 10.8904C35.7306 10.1566 36.3356 9.55166 37.0705 9.55198C37.8065 9.55122 38.4011 10.1459 38.4112 10.8927L38.4139 14.739L42.2494 14.7309C42.9962 14.741 43.5909 15.3357 43.5901 16.0716C43.5905 16.8065 42.9855 17.4115 42.2517 17.4101L38.4032 17.4095L38.4049 21.2569Z" fill="#326BDE"/>
</svg>
