<svg width="40" height="40" viewBox="0 0 40 40" fill="none" xmlns="http://www.w3.org/2000/svg">
<rect width="40" height="40" rx="20" fill="white"/>
<g clip-path="url(#clip0)">
<path d="M31.8334 16.8207C31.7763 16.6546 31.5741 16.5254 31.4053 16.5254C30.6743 16.5254 29.9433 16.5254 29.2123 16.5254C29.0435 16.5254 28.8413 16.6546 28.7842 16.8207C28.7284 16.9832 28.6866 17.1283 28.6589 17.2647L27.194 13.212C26.9524 12.5437 26.3125 12.0947 25.602 12.0947H14.3981C13.6875 12.0947 13.0477 12.5437 12.806 13.2121L11.3411 17.2652C11.3133 17.1286 11.2715 16.9834 11.2157 16.8207C11.1586 16.6546 10.9563 16.5254 10.7876 16.5254C10.0566 16.5254 9.32562 16.5254 8.59458 16.5254C8.42583 16.5254 8.22356 16.6546 8.16652 16.8207C7.94442 17.4673 7.94455 17.8375 8.16658 18.4842C8.22362 18.6503 8.42589 18.7794 8.59464 18.7794C9.32569 18.7794 10.0567 18.7794 10.7876 18.7794C10.7897 18.7794 10.7919 18.7789 10.794 18.7788L10.7609 18.8705C10.3138 19.019 9.99093 19.44 9.99093 19.9371V23.3308V23.6105V27.3658C9.99093 27.6644 10.2328 27.9063 10.5314 27.9063H13.2514C13.5499 27.9063 13.7918 27.6644 13.7918 27.3658V24.7349H26.2082V27.3658C26.2082 27.6644 26.4501 27.9063 26.7486 27.9063H29.4686C29.7672 27.9063 30.0091 27.6644 30.0091 27.3658V23.6105V23.3308V19.9371C30.0091 19.4401 29.6863 19.0192 29.2394 18.8705L29.2062 18.7788C29.2082 18.7789 29.2104 18.7794 29.2124 18.7794C29.9434 18.7794 30.6743 18.7794 31.4054 18.7794C31.5742 18.7794 31.7764 18.6502 31.8334 18.4841C32.0555 17.8375 32.0553 17.4673 31.8334 16.8207ZM14.605 14.0836H25.3935L27.1029 18.8126H12.8958L14.605 14.0836ZM14.9059 22.144H12.6304C12.1422 22.144 11.7465 21.7483 11.7465 21.2601C11.7465 20.7719 12.1421 20.3762 12.6304 20.3762H14.9059C15.3941 20.3762 15.7899 20.7719 15.7899 21.2601C15.7899 21.7483 15.3941 22.144 14.9059 22.144ZM27.3694 22.144H25.0939C24.6057 22.144 24.21 21.7483 24.21 21.2601C24.21 20.7719 24.6057 20.3762 25.0939 20.3762H27.3694C27.8576 20.3762 28.2533 20.7719 28.2533 21.2601C28.2533 21.7483 27.8576 22.144 27.3694 22.144Z" fill="#326BDE"/>
</g>
<defs>
<clipPath id="clip0">
<rect width="24" height="24" fill="white" transform="translate(8 8)"/>
</clipPath>
</defs>
</svg>
