<svg width="20" height="15" viewBox="0 0 20 15" fill="none" xmlns="http://www.w3.org/2000/svg">
<mask id="mask0" style="mask-type:alpha" maskUnits="userSpaceOnUse" x="0" y="0" width="20" height="15">
<rect width="20" height="15" fill="white"/>
</mask>
<g mask="url(#mask0)">
<path fill-rule="evenodd" clip-rule="evenodd" d="M0 10H20V15H0V10Z" fill="#14DC5A"/>
<path fill-rule="evenodd" clip-rule="evenodd" d="M0 0H20V6.25H0V0Z" fill="#0099B5"/>
<path d="M-1.25 5.78125H-1.71875V6.25V10V10.4688H-1.25H21.25H21.7188V10V6.25V5.78125H21.25H-1.25Z" fill="#F7FCFF" stroke="#C51918" stroke-width="0.9375"/>
<path fill-rule="evenodd" clip-rule="evenodd" d="M10.4546 1.5004L9.84042 1.84883L10.0158 1.14069L9.42749 0.620315H10.1959L10.4537 -0.0498047L10.7559 0.620315H11.411L10.8962 1.14069L11.1437 1.84883L10.4546 1.5004ZM7.30596 3.42188L7.92014 3.07345L8.60928 3.42188L8.36179 2.71374L8.8765 2.19337H8.22142L7.91921 1.52325L7.66148 2.19337H6.89304L7.48137 2.71374L7.30596 3.42188ZM5.61034 4.72057L4.99616 5.069L5.17157 4.36086L4.58324 3.84048H5.35168L5.60941 3.17036L5.91162 3.84048H6.5667L6.05199 4.36086L6.29948 5.069L5.61034 4.72057ZM7.95551 4.72329L7.34133 5.07171L7.51674 4.36357L6.92841 3.8432H7.69685L7.95458 3.17308L8.25679 3.8432H8.91187L8.39716 4.36357L8.64465 5.07171L7.95551 4.72329ZM10.4555 4.72329L9.84133 5.07171L10.0167 4.36357L9.4284 3.8432H10.1969L10.4546 3.17308L10.7568 3.8432H11.4119L10.8972 4.36357L11.1446 5.07171L10.4555 4.72329ZM9.80596 3.42188L10.4201 3.07345L11.1093 3.42188L10.8618 2.71374L11.3765 2.19337H10.7214L10.4192 1.52325L10.1615 2.19337H9.39304L9.98137 2.71374L9.80596 3.42188ZM12.3413 5.07171L12.9555 4.72329L13.6446 5.07171L13.3972 4.36357L13.9119 3.8432H13.2568L12.9546 3.17308L12.6969 3.8432H11.9284L12.5167 4.36357L12.3413 5.07171ZM12.9201 3.07345L12.306 3.42188L12.4814 2.71374L11.893 2.19337H12.6615L12.9192 1.52325L13.2214 2.19337H13.8765L13.3618 2.71374L13.6093 3.42188L12.9201 3.07345ZM12.3404 1.84883L12.9546 1.5004L13.6437 1.84883L13.3962 1.14069L13.911 0.620315H13.2559L12.9537 -0.0498047L12.6959 0.620315H11.9275L12.5158 1.14069L12.3404 1.84883ZM15.4555 4.72329L14.8413 5.07171L15.0167 4.36357L14.4284 3.8432H15.1969L15.4546 3.17308L15.7568 3.8432H16.4119L15.8972 4.36357L16.1446 5.07171L15.4555 4.72329ZM14.806 3.42188L15.4201 3.07345L16.1093 3.42188L15.8618 2.71374L16.3765 2.19337H15.7214L15.4192 1.52325L15.1615 2.19337H14.393L14.9814 2.71374L14.806 3.42188ZM15.4546 1.5004L14.8404 1.84883L15.0158 1.14069L14.4275 0.620315H15.1959L15.4537 -0.0498047L15.7559 0.620315H16.411L15.8962 1.14069L16.1437 1.84883L15.4546 1.5004ZM3.67807 5.15022C3.67807 5.15022 2.16816 4.7407 2.19659 3.22602C2.22503 1.71134 3.75 1.31808 3.75 1.31808C3.12689 1.08212 1.28447 1.39875 1.25046 3.21066C1.21644 5.02257 3.09746 5.37952 3.67807 5.15022Z" fill="#F7FCFF"/>
</g>
<rect width="20" height="15" fill="url(#paint0_linear)" style="mix-blend-mode:overlay"/>
<path d="M1.5 1H18.5V-1H1.5V1ZM19 1.5V13.5H21V1.5H19ZM18.5 14H1.5V16H18.5V14ZM1 13.5V1.5H-1V13.5H1ZM1.5 14C1.22386 14 1 13.7761 1 13.5H-1C-1 14.8807 0.119288 16 1.5 16V14ZM19 13.5C19 13.7761 18.7761 14 18.5 14V16C19.8807 16 21 14.8807 21 13.5H19ZM18.5 1C18.7761 1 19 1.22386 19 1.5H21C21 0.119288 19.8807 -1 18.5 -1V1ZM1.5 -1C0.119288 -1 -1 0.119289 -1 1.5H1C1 1.22386 1.22386 1 1.5 1V-1Z" fill="black" fill-opacity="0.1" style="mix-blend-mode:multiply"/>
<defs>
<linearGradient id="paint0_linear" x1="10" y1="0" x2="10" y2="15" gradientUnits="userSpaceOnUse">
<stop stop-color="white" stop-opacity="0.7"/>
<stop offset="1" stop-opacity="0.3"/>
</linearGradient>
</defs>
</svg>
