<svg width="24" height="24" viewBox="0 0 24 24" fill="none" xmlns="http://www.w3.org/2000/svg">
<circle cx="12" cy="12" r="11.25" fill="#FC6580" stroke="white" stroke-width="1.5"/>
<path fill-rule="evenodd" clip-rule="evenodd" d="M14.72 9.1182C14.74 9.15316 14.775 9.17814 14.82 9.17814C16.02 9.17814 17 10.157 17 11.3557V14.3224C17 15.5211 16.02 16.5 14.82 16.5H9.18C7.975 16.5 7 15.5211 7 14.3224V11.3557C7 10.157 7.975 9.17814 9.18 9.17814C9.22 9.17814 9.26 9.15816 9.275 9.1182L9.305 9.05827C9.32224 9.02198 9.33993 8.98472 9.35789 8.94688C9.4858 8.67746 9.62731 8.3794 9.715 8.20422C9.945 7.75472 10.335 7.50499 10.82 7.5H13.175C13.66 7.50499 14.055 7.75472 14.285 8.20422C14.3637 8.36154 14.4837 8.61495 14.5994 8.85919C14.6232 8.9096 14.6469 8.95962 14.67 9.00832L14.72 9.1182ZM14.355 11.0361C14.355 11.2858 14.555 11.4856 14.805 11.4856C15.055 11.4856 15.26 11.2858 15.26 11.0361C15.26 10.7863 15.055 10.5816 14.805 10.5816C14.555 10.5816 14.355 10.7863 14.355 11.0361ZM11.135 11.8101C11.37 11.5754 11.675 11.4505 12 11.4505C12.325 11.4505 12.63 11.5754 12.86 11.8051C13.09 12.0349 13.215 12.3395 13.215 12.6642C13.21 13.3334 12.67 13.8778 12 13.8778C11.675 13.8778 11.37 13.753 11.14 13.5232C10.91 13.2935 10.785 12.9888 10.785 12.6642V12.6592C10.78 12.3445 10.905 12.0399 11.135 11.8101ZM13.385 14.0527C13.03 14.4074 12.54 14.6271 12 14.6271C11.475 14.6271 10.985 14.4223 10.61 14.0527C10.24 13.6782 10.035 13.1887 10.035 12.6643C10.03 12.1449 10.235 11.6554 10.605 11.2808C10.98 10.9062 11.475 10.7015 12 10.7015C12.525 10.7015 13.02 10.9062 13.39 11.2758C13.76 11.6504 13.965 12.1449 13.965 12.6643C13.96 13.2087 13.74 13.6981 13.385 14.0527Z" fill="white"/>
</svg>
