<svg width="40" height="40" viewBox="0 0 40 40" fill="none" xmlns="http://www.w3.org/2000/svg">
<rect width="40" height="40" rx="20" fill="#F0F0FE"/>
<path d="M20.6327 22.2367L18.7855 20.4112L18.8073 20.3894C20.0727 18.9785 20.9745 17.3566 21.5055 15.6403H23.6364V14.1821H18.5455V12.7275H17.0909V14.1821H12V15.6294H20.1236C19.6327 17.033 18.8654 18.3639 17.8182 19.5276C17.1418 18.7748 16.5818 17.9566 16.1382 17.0912H14.6836C15.2145 18.2766 15.9418 19.3966 16.8509 20.4075L13.1527 24.0621L14.1818 25.0912L17.8182 21.4548L20.08 23.7166L20.6327 22.2367Z" fill="#326BDE"/>
<path d="M24.7273 18.5459H23.2727L20 27.2732H21.4546L22.2727 25.0914H25.7273L26.5455 27.2732H28L24.7273 18.5459ZM22.8182 23.6368L24 20.4841L25.1819 23.6368H22.8182Z" fill="#326BDE"/>
</svg>
