<svg width="20" height="22" viewBox="0 0 20 22" fill="none" xmlns="http://www.w3.org/2000/svg">
<path d="M9.96106 15.5167V12.8887" stroke="#326BDE" stroke-width="1.5" stroke-linecap="round" stroke-linejoin="round"/>
<path d="M19.0895 10.4775L19.0605 10.4985C16.6385 11.9905 13.4405 12.8915 9.95646 12.8915C6.47246 12.8915 3.28346 11.9905 0.862458 10.4985L0.832458 10.4775" stroke="#326BDE" stroke-width="1.5" stroke-linecap="round" stroke-linejoin="round"/>
<path fill-rule="evenodd" clip-rule="evenodd" d="M0.750183 12.3505C0.750183 6.19846 3.05318 4.14746 9.96118 4.14746C16.8702 4.14746 19.1722 6.19846 19.1722 12.3505C19.1722 18.5025 16.8702 20.5535 9.96118 20.5535C3.05318 20.5535 0.750183 18.5025 0.750183 12.3505Z" stroke="#326BDE" stroke-width="1.5" stroke-linecap="round" stroke-linejoin="round"/>
<path d="M13.2238 4.3692V3.7392C13.2238 2.4752 12.3008 1.4502 11.1638 1.4502H8.75879C7.62179 1.4502 6.69879 2.4752 6.69879 3.7392V4.3692" stroke="#326BDE" stroke-width="1.5" stroke-linecap="round" stroke-linejoin="round"/>
</svg>
