<svg width="24" height="24" viewBox="0 0 24 24" fill="none" xmlns="http://www.w3.org/2000/svg">
<path fill-rule="evenodd" clip-rule="evenodd" d="M11.8445 21.6623C8.15273 21.6623 5 21.0878 5 18.787C5 16.4862 8.13273 14.3623 11.8445 14.3623C15.5364 14.3623 18.6891 16.4657 18.6891 18.7664C18.6891 21.0663 15.5564 21.6623 11.8445 21.6623Z" stroke="#7A879C" stroke-width="1.5" stroke-linecap="round" stroke-linejoin="round"/>
<path fill-rule="evenodd" clip-rule="evenodd" d="M11.8373 11.174C14.26 11.174 16.2237 9.21039 16.2237 6.78766C16.2237 4.36494 14.26 2.40039 11.8373 2.40039C9.41458 2.40039 7.45004 4.36494 7.45004 6.78766C7.44186 9.20221 9.39186 11.1658 11.8064 11.174C11.8173 11.174 11.8273 11.174 11.8373 11.174Z" stroke="#7A879C" stroke-width="1.5" stroke-linecap="round" stroke-linejoin="round"/>
</svg>
